<svg width="552" height="104" viewBox="0 0 552 104" fill="none" xmlns="http://www.w3.org/2000/svg">
<path d="M116 62.9966V76.7512C107.216 76.7968 98.7035 75.9241 90.2757 74.0159C77.783 71.1894 66.6387 65.3737 55.9418 58.5615C44.8559 51.5018 33.3486 45.3929 20.1817 43.374C13.6079 42.3646 6.93693 41.9347 0.0779311 41.2184V27.2488C5.43936 27.633 10.7813 27.8349 16.0844 28.4341C32.1946 30.2446 46.5285 36.7377 60.0131 45.4385C71.3259 52.7457 83.1573 58.9327 96.6744 60.9321C102.95 61.8634 109.303 62.2997 116 63.0031V62.9966Z" fill="black"/>
<path d="M0.000135326 68.6756V54.8167C9.13466 54.3869 18.1071 55.1358 26.4053 58.555C34.4313 61.8634 42.2238 65.9533 49.6468 70.473C64.1882 79.3302 79.3972 86.1685 96.4215 88.2395C102.827 89.021 109.29 89.3336 115.942 89.8806V103.993C109.433 103.512 103.015 103.258 96.642 102.528C76.5901 100.236 58.6711 92.2447 42.0034 81.2384C29.77 73.1627 16.6031 68.5323 1.84779 68.884C1.32915 68.897 0.810508 68.7667 -0.00634766 68.669L0.000135326 68.6756Z" fill="black"/>
<path d="M115.994 35.5068V49.4177C107.65 49.3787 99.3778 49.0009 91.8056 45.7642C83.6112 42.2604 75.475 38.3202 67.9872 33.5074C48.1233 20.7362 26.5026 14.6339 3.05362 14.471C2.1071 14.4645 1.16707 14.3603 0.0519992 14.2887V0C5.86723 0.364707 11.5463 0.57311 17.193 1.10715C38.1719 3.09349 57.1217 10.6742 74.6906 22.1169C83.5074 27.861 92.6809 32.9213 103.352 34.2889C107.501 34.823 111.682 35.0965 116 35.5003L115.994 35.5068Z" fill="black"/>
<path d="M62.9304 0.188866C70.8915 0.188866 78.8462 0.169328 86.8073 0.221429C87.6241 0.221429 88.5577 0.462396 89.2319 0.905254C97.2449 6.1935 106.01 8.63573 115.877 7.87376V22.1559C107.52 22.4034 99.287 21.5242 91.8575 17.5255C82.0163 12.2242 72.4734 6.36283 62.8008 0.742438C62.8462 0.560085 62.8915 0.371219 62.9304 0.188866Z" fill="black"/>
<path d="M52.7716 103.759C44.7911 103.759 36.817 103.772 28.8364 103.739C28.2141 103.739 27.475 103.622 26.9823 103.284C18.9304 97.8 10.0034 95.501 0.110346 96.0937V82.0329C8.33725 81.6031 16.3437 82.4237 23.6176 86.2987C32.5577 91.0594 41.206 96.3607 49.9904 101.421C51.0147 102.014 52.052 102.574 53.0828 103.153C52.9791 103.355 52.8818 103.557 52.7781 103.759H52.7716Z" fill="black"/>
<path d="M165.984 0V10.752H144.48V25.056H164.64V35.808H144.48V64.032H132V0H165.984Z" fill="black"/>
<path d="M176.719 0H189.199V64.032H176.719V0Z" fill="black"/>
<path d="M196.709 0H210.341L227.429 43.008L244.517 0H258.149L231.077 64.032H223.589L196.709 0Z" fill="black"/>
<path d="M301.114 0V10.752H278.074V25.056H300.154V35.808H278.074V53.28H301.114V64.032H265.594V0H301.114Z" fill="black"/>
<path d="M313.219 0H331.747C340.579 0 345.091 2.304 348.067 4.8C352.963 8.92801 354.403 14.4 354.403 19.2C354.403 25.44 351.907 30.912 346.915 34.272C345.283 35.424 342.979 36.48 339.907 37.056L359.875 64.032H344.323L327.235 38.304H325.699V64.032H313.219V0ZM325.699 10.176V29.472H329.251C331.651 29.472 341.539 29.184 341.539 19.776C341.539 10.272 331.747 10.176 329.443 10.176H325.699Z" fill="black"/>
<path d="M368.344 0H380.824V64.032H368.344V0Z" fill="black"/>
<path d="M388.334 0H401.966L419.054 43.008L436.142 0H449.774L422.702 64.032H415.214L388.334 0Z" fill="black"/>
<path d="M492.739 0V10.752H469.699V25.056H491.779V35.808H469.699V53.28H492.739V64.032H457.219V0H492.739Z" fill="black"/>
<path d="M504.844 0H523.372C532.204 0 536.716 2.304 539.692 4.8C544.588 8.92801 546.028 14.4 546.028 19.2C546.028 25.44 543.532 30.912 538.54 34.272C536.908 35.424 534.604 36.48 531.532 37.056L551.5 64.032H535.948L518.86 38.304H517.324V64.032H504.844V0ZM517.324 10.176V29.472H520.876C523.276 29.472 533.164 29.184 533.164 19.776C533.164 10.272 523.372 10.176 521.068 10.176H517.324Z" fill="black"/>
<path d="M132 73.922H136.302L143.577 93.452L150.852 73.922H155.154L143.577 103.742L132 73.922Z" fill="black"/>
<path d="M208.016 73.922V77.954H197.613V85.052H207.704V89.084H197.613V97.904H208.016V101.936H193.624V73.922H208.016Z" fill="black"/>
<path d="M252.368 101.936H248.379V72.032L267.309 93.326V73.922H271.298V103.658L252.368 82.364V101.936Z" fill="black"/>
<path d="M325.978 77.954H319.995V101.936H316.005V77.954H310.021V73.922H325.978V77.954Z" fill="black"/>
<path d="M364.688 73.922H368.677V90.806C368.677 92.318 368.716 94.166 369.499 95.636C370.281 97.064 372.041 98.534 374.348 98.534C376.656 98.534 378.416 97.064 379.198 95.636C379.98 94.166 380.019 92.318 380.019 90.806V73.922H384.009V91.94C384.009 94.166 383.578 96.854 381.584 99.206C380.215 100.802 377.907 102.482 374.348 102.482C370.789 102.482 368.482 100.802 367.113 99.206C365.118 96.854 364.688 94.166 364.688 91.94V73.922Z" fill="black"/>
<path d="M425.478 73.922H430.132C433.3 73.922 435.334 74.342 437.016 75.56C439.871 77.618 440.105 80.936 440.105 82.154C440.105 86.186 437.798 89.126 434.317 89.966L442.452 101.936H437.641L430.171 90.47H429.467V101.936H425.478V73.922ZM429.467 77.87V86.774H430.719C431.814 86.774 436.272 86.648 436.272 82.196C436.272 78.248 432.792 77.87 430.836 77.87H429.467Z" fill="black"/>
<path d="M495.963 73.922V77.954H485.559V85.052H495.65V89.084H485.559V97.904H495.963V101.936H481.57V73.922H495.963Z" fill="black"/>
<path d="M550.796 78.122L547.589 80.138C547.354 79.508 547.002 78.92 546.416 78.374C545.594 77.66 544.734 77.366 543.6 77.366C541.175 77.366 539.923 78.92 539.923 80.726C539.923 81.566 540.197 83.036 542.739 84.128L545.36 85.262C550.17 87.362 551.5 90.302 551.5 93.494C551.5 98.828 547.98 102.482 543.091 102.482C540.08 102.482 538.281 101.264 536.951 99.668C535.543 97.988 534.917 96.14 534.761 94.208L538.711 93.284C538.711 94.67 539.18 95.972 539.806 96.854C540.549 97.862 541.644 98.534 543.209 98.534C545.633 98.534 547.511 96.644 547.511 93.83C547.511 90.974 545.477 89.798 543.756 89.042L541.253 87.908C539.102 86.942 535.934 85.01 535.934 80.81C535.934 77.03 538.672 73.418 543.561 73.418C546.377 73.418 547.98 74.552 548.801 75.308C549.505 75.98 550.249 76.946 550.796 78.122Z" fill="black"/>
</svg>
